<svg xmlns="http://www.w3.org/2000/svg" width="960" height="618.166" viewBox="0 0 960 618.166" xmlns:xlink="http://www.w3.org/1999/xlink" role="img" artist="Katerina Limpitsouni" source="https://undraw.co/"><g transform="translate(-567 -261)"><path d="M498.368,601.5h0s32.751-22.516,32.751-32.751,22.516-76.759,34.8-47.079-17.4,71.642-17.4,71.642-32.751,59.36-52.2,69.595S460.5,667,460.5,667V639.371l18.71-27.692A23.12,23.12,0,0,1,498.368,601.5Z" transform="translate(443.728 121.587)" fill="#ed9da0"/><path d="M43.469,311.642,15.308,224.649,49.081,92.623s-22.875-38.681-37.4-66.292c-2.9-1.884-6.083-9.97-8.316-16.69C1.392,5.29.161,2.019,0,.345l.613.2C.518.191.467,0,.467,0L22.245,7.925c13.716,4.973,29.2,11.248,31.953,15.1,5.117,7.164,7.164-5.118,21.493,41.961S93.6,157.613,93.6,157.613s-35.309,11.77-31.215,57.824-6.141,96.2-6.141,96.2Z" transform="translate(849.005 565.989)" fill="#3f3d56"/><path d="M-5284.108-4418.943l-27.634-30.7-11.258-52.2,15.353-12.281s5.543-13.858,10.18-29.683a61.265,61.265,0,0,1-21.437-46.62,61.407,61.407,0,0,1,61.407-61.407,61.407,61.407,0,0,1,61.407,61.407,61.421,61.421,0,0,1-36.674,56.223c-3.047,16.551-4.549,36.03,3.923,40.548,15.352,8.188,32.751,45.032,32.751,45.032l-26.61,29.681Z" transform="translate(6082.921 5067.32)" fill="#ed9da0"/><path d="M421.385,451.957s-12.281-3.07-5.117,9.211,14.328,34.8-11.258,35.821-51.173-12.281-59.36-39.915-11.258-25.586-14.328-24.563-35.821,34.8-35.821,34.8l11.258,63.454,4.094,227.207H460.276s6.141-65.5-4.094-80.853,9.211-54.243,9.211-54.243,17.4-26.61,4.094-77.782S426.5,451.957,421.385,451.957Z" transform="translate(439.858 119.661)" fill="#d0ff27"/><path d="M8.837,327.536s7.037-18.766,16.522-40.352a46.1,46.1,0,0,1-8.333.437C5.768,286.6-2.42,170.947.651,109.54,3.7,48.575,36.9,34.013,37.381,33.807,42.461,27.562,67.534,18.2,79.456,7.195c13.305-12.283,28.658-5.117,28.658-5.117s19.445,94.157,23.538,117.7,5.117,101.322-9.21,128.955-28.235,78.807-28.235,78.807Z" transform="translate(670.23 550.096)" fill="#3f3d56"/><path d="M118.5,549.8l4.984,54.243H178.8L173.767,536.5Z" transform="translate(569.779 273.583)" fill="#ed9da0"/><path d="M364.5,523.423l13.3,82.9H673.583L699.169,439.5Z" transform="translate(575.549 271.308)" fill="#3f3d56"/><path d="M711.2,428.5l3.07,15.352L331.5,535.963v-13.3Z" transform="translate(574.775 271.05)" fill="#3f3d56"/><path d="M544.547,455.57l-2.047,17.4,22.516-3.07L555.8,452.5Z" transform="translate(579.724 271.613)" fill="#3f3d56"/><path d="M554.5,431.5s45.032-3.07,57.313,31.727,40.938,97.228,52.2,106.439,23.539,33.774,21.493,41.962" transform="translate(445.933 119.648)" fill="none" stroke="#3f3d56" stroke-miterlimit="10" stroke-width="5"/><path d="M561.586,431.2c0,4.8-5.109,8.7-13.3,8.7S536,436,536,431.2s4.086-8.7,12.281-8.7S561.586,426.395,561.586,431.2Z" transform="translate(445.499 119.438)" fill="#d0ff27"/><ellipse cx="13" cy="18.5" rx="13" ry="18.5" transform="translate(792 466.166)" fill="#ffb9b9"/><path d="M321.573,121.77c7.372,11.96.575,27.712-8.506,38.432s-20.792,20.129-24.846,33.58c-3.635,12.061-.329,25.064,3.947,36.915s9.591,23.662,10.031,36.251-5.523,26.49-17.375,30.74c-9.5,3.406-20.359-.028-30.537.93a23.632,23.632,0,0,0-7.736,2.029c-15.265,7.1-18.724,31.684-35.367,34.233-10.242,1.569-19.734-7.311-22.6-17.276s-.807-20.587,1.263-30.74l17.008-83.451,14.152-69.436c2.816-13.819,6.158-28.6,16.544-38.143C250.246,84.176,269.375,83.9,286.594,84.6c15.82.641,32.286,1.725,46.051,9.536s23.889,24.414,19.117,39.508c-4.451-10.62-17.75-16.589-28.645-12.841" transform="translate(528.335 311.27)" fill="#090814"/></g></svg>