<svg xmlns="http://www.w3.org/2000/svg" xmlns:xlink="http://www.w3.org/1999/xlink" width="2000" zoomAndPan="magnify" viewBox="0 0 1500 1499.999933" height="2000" preserveAspectRatio="xMidYMid meet" version="1.0"><defs><g/></defs><rect x="-150" width="1800" fill="#ffffff" y="-149.999993" height="1799.99992" fill-opacity="1"/><rect x="-150" width="1800" fill="#ffffff" y="-149.999993" height="1799.99992" fill-opacity="1"/><g fill="#3d7c65" fill-opacity="1"><g transform="translate(762.223262, 787.394672)"><g><path d="M 104.742188 5.996094 C 94.09375 5.996094 83.929688 4.417969 74.25 1.265625 C 64.570312 -1.886719 55.714844 -6.347656 47.671875 -12.125 C 39.636719 -17.894531 32.644531 -24.707031 26.699219 -32.566406 C 20.738281 -40.433594 16.140625 -49.082031 12.894531 -58.503906 C 9.644531 -67.9375 8.019531 -77.898438 8.019531 -88.390625 C 8.019531 -98.960938 9.644531 -108.988281 12.894531 -118.464844 C 16.136719 -127.933594 20.738281 -136.601562 26.699219 -144.46875 C 32.648438 -152.332031 39.640625 -159.125 47.679688 -164.855469 C 55.71875 -170.582031 64.574219 -175.023438 74.25 -178.171875 C 83.929688 -181.328125 94.09375 -182.902344 104.742188 -182.902344 C 115.476562 -182.902344 125.683594 -181.328125 135.367188 -178.171875 C 145.039062 -175.023438 153.914062 -170.585938 161.996094 -164.859375 C 170.078125 -159.128906 177.09375 -152.332031 183.046875 -144.46875 C 189.003906 -136.601562 193.605469 -127.933594 196.851562 -118.464844 C 200.097656 -108.988281 201.722656 -98.960938 201.722656 -88.390625 C 201.722656 -77.898438 200.097656 -67.9375 196.851562 -58.503906 C 193.605469 -49.082031 189.003906 -40.433594 183.046875 -32.566406 C 177.097656 -24.707031 170.082031 -17.890625 162 -12.121094 C 153.917969 -6.347656 145.042969 -1.882812 135.367188 1.265625 C 125.683594 4.417969 115.476562 5.996094 104.742188 5.996094 Z M 104.742188 1.011719 C 114.949219 1.011719 124.640625 -0.484375 133.824219 -3.472656 C 143.011719 -6.464844 151.4375 -10.699219 159.105469 -16.175781 C 166.773438 -21.652344 173.429688 -28.117188 179.074219 -35.574219 C 184.710938 -43.019531 189.066406 -51.203125 192.136719 -60.125 C 195.207031 -69.035156 196.738281 -78.457031 196.738281 -88.390625 C 196.738281 -98.410156 195.207031 -107.894531 192.136719 -116.847656 C 189.066406 -125.8125 184.710938 -134.015625 179.074219 -141.460938 C 173.429688 -148.914062 166.777344 -155.359375 159.113281 -160.792969 C 151.445312 -166.226562 143.015625 -170.441406 133.824219 -173.433594 C 124.640625 -176.425781 114.949219 -177.917969 104.742188 -177.917969 C 94.621094 -177.917969 84.972656 -176.425781 75.792969 -173.433594 C 66.601562 -170.441406 58.195312 -166.226562 50.574219 -160.796875 C 42.949219 -155.363281 36.316406 -148.917969 30.671875 -141.460938 C 25.035156 -134.015625 20.679688 -125.8125 17.609375 -116.847656 C 14.539062 -107.894531 13.003906 -98.410156 13.003906 -88.390625 C 13.003906 -78.457031 14.539062 -69.035156 17.605469 -60.125 C 20.679688 -51.207031 25.035156 -43.019531 30.671875 -35.574219 C 36.316406 -28.117188 42.953125 -21.648438 50.582031 -16.171875 C 58.203125 -10.699219 66.605469 -6.464844 75.792969 -3.472656 C 84.972656 -0.484375 94.621094 1.011719 104.742188 1.011719 Z M 104.742188 -20.273438 C 114.28125 -20.273438 123.222656 -21.984375 131.574219 -25.410156 C 139.925781 -28.835938 147.277344 -33.636719 153.625 -39.816406 C 159.960938 -45.988281 164.90625 -53.203125 168.453125 -61.464844 C 171.996094 -69.71875 173.765625 -78.691406 173.765625 -88.390625 C 173.765625 -98.085938 171.996094 -107.082031 168.449219 -115.378906 C 164.902344 -123.683594 159.960938 -130.921875 153.625 -137.09375 C 147.273438 -143.273438 139.921875 -148.097656 131.5625 -151.566406 C 123.214844 -155.03125 114.277344 -156.761719 104.742188 -156.761719 C 95.210938 -156.761719 86.292969 -155.03125 77.992188 -151.570312 C 69.675781 -148.101562 62.367188 -143.277344 56.0625 -137.097656 C 49.765625 -130.925781 44.84375 -123.6875 41.292969 -115.378906 C 37.75 -107.082031 35.976562 -98.085938 35.976562 -88.390625 C 35.976562 -78.691406 37.75 -69.71875 41.292969 -61.464844 C 44.839844 -53.203125 49.765625 -45.980469 56.0625 -39.808594 C 62.363281 -33.632812 69.671875 -28.832031 77.980469 -25.40625 C 86.285156 -21.984375 95.207031 -20.273438 104.742188 -20.273438 Z M 104.742188 -15.289062 C 94.550781 -15.289062 84.996094 -17.125 76.082031 -20.800781 C 67.175781 -24.46875 59.335938 -29.621094 52.574219 -36.25 C 45.804688 -42.882812 40.519531 -50.632812 36.710938 -59.5 C 32.902344 -68.378906 30.996094 -78.011719 30.996094 -88.390625 C 30.996094 -98.765625 32.898438 -108.414062 36.710938 -117.335938 C 40.519531 -126.25 45.804688 -134.023438 52.574219 -140.65625 C 59.335938 -147.285156 67.167969 -152.453125 76.074219 -156.167969 C 84.988281 -159.886719 94.546875 -161.746094 104.742188 -161.746094 C 114.9375 -161.746094 124.515625 -159.886719 133.472656 -156.171875 C 142.421875 -152.457031 150.296875 -147.289062 157.101562 -140.664062 C 163.914062 -134.027344 169.226562 -126.253906 173.035156 -117.335938 C 176.84375 -108.414062 178.75 -98.765625 178.75 -88.390625 C 178.75 -78.011719 176.84375 -68.378906 173.03125 -59.5 C 169.222656 -50.628906 163.914062 -42.878906 157.101562 -36.242188 C 150.292969 -29.617188 142.414062 -24.46875 133.464844 -20.796875 C 124.507812 -17.125 114.933594 -15.289062 104.742188 -15.289062 Z M 104.742188 -15.289062 "/></g></g></g><g fill="#3d7c65" fill-opacity="1"><g transform="translate(956.018918, 787.394672)"><g><path d="M 93.710938 6.125 C 83.109375 6.125 73.230469 4.382812 64.074219 0.902344 C 54.890625 -2.59375 46.871094 -7.613281 40.007812 -14.160156 C 33.136719 -20.71875 27.773438 -28.589844 23.921875 -37.777344 C 20.070312 -46.957031 18.144531 -57.164062 18.144531 -68.402344 L 18.144531 -179.140625 L 45.972656 -179.140625 L 45.972656 -70.089844 C 45.972656 -63.1875 47.027344 -56.710938 49.144531 -50.664062 C 51.242188 -44.652344 54.324219 -39.347656 58.390625 -34.746094 C 62.433594 -30.175781 67.398438 -26.601562 73.292969 -24.023438 C 79.203125 -21.4375 86.011719 -20.144531 93.710938 -20.144531 C 101.238281 -20.144531 107.941406 -21.417969 113.808594 -23.960938 C 119.664062 -26.5 124.636719 -30.035156 128.71875 -34.570312 C 132.824219 -39.128906 135.949219 -44.410156 138.085938 -50.417969 C 140.242188 -56.464844 141.316406 -62.933594 141.316406 -69.828125 L 141.316406 -179.140625 L 169.273438 -179.140625 L 169.273438 -68.402344 C 169.273438 -57.433594 167.417969 -47.386719 163.707031 -38.257812 C 159.984375 -29.109375 154.730469 -21.234375 147.949219 -14.632812 C 141.175781 -8.039062 133.179688 -2.929688 123.957031 0.695312 C 114.75 4.316406 104.667969 6.125 93.710938 6.125 Z M 93.710938 1.140625 C 104.039062 1.140625 113.511719 -0.550781 122.132812 -3.941406 C 130.734375 -7.324219 138.179688 -12.078125 144.472656 -18.203125 C 150.757812 -24.320312 155.628906 -31.632812 159.089844 -40.136719 C 162.558594 -48.660156 164.292969 -58.082031 164.292969 -68.402344 L 164.292969 -176.648438 L 166.785156 -176.648438 L 166.785156 -174.15625 L 143.808594 -174.15625 L 143.808594 -176.648438 L 146.300781 -176.648438 L 146.300781 -69.828125 C 146.300781 -62.359375 145.128906 -55.332031 142.78125 -48.746094 C 140.421875 -42.117188 136.96875 -36.28125 132.421875 -31.234375 C 127.855469 -26.164062 122.3125 -22.214844 115.792969 -19.390625 C 109.289062 -16.570312 101.929688 -15.160156 93.710938 -15.160156 C 85.316406 -15.160156 77.84375 -16.59375 71.296875 -19.457031 C 64.730469 -22.328125 59.183594 -26.328125 54.65625 -31.445312 C 50.160156 -36.535156 46.75 -42.394531 44.4375 -49.019531 C 42.136719 -55.601562 40.988281 -62.625 40.988281 -70.089844 L 40.988281 -176.648438 L 43.480469 -176.648438 L 43.480469 -174.15625 L 20.636719 -174.15625 L 20.636719 -176.648438 L 23.128906 -176.648438 L 23.128906 -68.402344 C 23.128906 -57.832031 24.925781 -48.269531 28.515625 -39.707031 C 32.101562 -31.15625 37.082031 -23.84375 43.449219 -17.765625 C 49.824219 -11.683594 57.292969 -7.011719 65.847656 -3.757812 C 74.429688 -0.492188 83.71875 1.140625 93.710938 1.140625 Z M 93.710938 1.140625 "/></g></g></g><g fill="#3d7c65" fill-opacity="1"><g transform="translate(1127.490263, 787.394672)"><g><path d="M 85.144531 2.492188 L 59.679688 2.492188 L 59.679688 -155.878906 L 62.171875 -155.878906 L 62.171875 -153.390625 L 3.867188 -153.390625 L 3.867188 -179.011719 L 143.578125 -179.011719 L 143.578125 -153.390625 L 85.144531 -153.390625 L 85.144531 -155.878906 L 87.636719 -155.878906 L 87.636719 2.492188 Z M 85.144531 -2.492188 L 85.144531 0 L 82.652344 0 L 82.652344 -158.371094 L 141.085938 -158.371094 L 141.085938 -155.878906 L 138.59375 -155.878906 L 138.59375 -176.519531 L 141.085938 -176.519531 L 141.085938 -174.027344 L 6.359375 -174.027344 L 6.359375 -176.519531 L 8.851562 -176.519531 L 8.851562 -155.878906 L 6.359375 -155.878906 L 6.359375 -158.371094 L 64.664062 -158.371094 L 64.664062 0 L 62.171875 0 L 62.171875 -2.492188 Z M 85.144531 -2.492188 "/></g></g></g><g fill="#3d7c65" fill-opacity="1"><g transform="translate(762.223262, 787.394672)"><g><path d="M 104.734375 3.5 C 94.359375 3.5 84.453125 1.96875 75.015625 -1.09375 C 65.585938 -4.164062 56.957031 -8.515625 49.125 -14.140625 C 41.289062 -19.765625 34.472656 -26.40625 28.671875 -34.0625 C 22.878906 -41.726562 18.40625 -50.144531 15.25 -59.3125 C 12.09375 -68.488281 10.515625 -78.179688 10.515625 -88.390625 C 10.515625 -98.679688 12.09375 -108.4375 15.25 -117.65625 C 18.40625 -126.875 22.878906 -135.3125 28.671875 -142.96875 C 34.472656 -150.625 41.289062 -157.238281 49.125 -162.8125 C 56.957031 -168.394531 65.585938 -172.722656 75.015625 -175.796875 C 84.453125 -178.867188 94.359375 -180.40625 104.734375 -180.40625 C 115.210938 -180.40625 125.164062 -178.867188 134.59375 -175.796875 C 144.019531 -172.722656 152.671875 -168.394531 160.546875 -162.8125 C 168.421875 -157.238281 175.253906 -150.625 181.046875 -142.96875 C 186.847656 -135.3125 191.328125 -126.875 194.484375 -117.65625 C 197.648438 -108.4375 199.234375 -98.679688 199.234375 -88.390625 C 199.234375 -78.179688 197.648438 -68.488281 194.484375 -59.3125 C 191.328125 -50.144531 186.847656 -41.726562 181.046875 -34.0625 C 175.253906 -26.40625 168.421875 -19.765625 160.546875 -14.140625 C 152.671875 -8.515625 144.019531 -4.164062 134.59375 -1.09375 C 125.164062 1.96875 115.210938 3.5 104.734375 3.5 Z M 104.734375 -17.78125 C 114.597656 -17.78125 123.859375 -19.550781 132.515625 -23.09375 C 141.171875 -26.644531 148.785156 -31.625 155.359375 -38.03125 C 161.929688 -44.4375 167.054688 -51.921875 170.734375 -60.484375 C 174.410156 -69.046875 176.25 -78.347656 176.25 -88.390625 C 176.25 -98.421875 174.410156 -107.738281 170.734375 -116.34375 C 167.054688 -124.957031 161.929688 -132.46875 155.359375 -138.875 C 148.785156 -145.28125 141.171875 -150.273438 132.515625 -153.859375 C 123.859375 -157.453125 114.597656 -159.25 104.734375 -159.25 C 94.878906 -159.25 85.644531 -157.453125 77.03125 -153.859375 C 68.414062 -150.273438 60.84375 -145.28125 54.3125 -138.875 C 47.78125 -132.46875 42.675781 -124.957031 39 -116.34375 C 35.320312 -107.738281 33.484375 -98.421875 33.484375 -88.390625 C 33.484375 -78.347656 35.320312 -69.046875 39 -60.484375 C 42.675781 -51.921875 47.78125 -44.4375 54.3125 -38.03125 C 60.84375 -31.625 68.414062 -26.644531 77.03125 -23.09375 C 85.644531 -19.550781 94.878906 -17.78125 104.734375 -17.78125 Z M 104.734375 -17.78125 "/></g></g></g><g fill="#3d7c65" fill-opacity="1"><g transform="translate(956.018918, 787.394672)"><g><path d="M 93.703125 3.640625 C 83.410156 3.640625 73.828125 1.953125 64.953125 -1.421875 C 56.085938 -4.796875 48.34375 -9.640625 41.71875 -15.953125 C 35.101562 -22.273438 29.9375 -29.867188 26.21875 -38.734375 C 22.5 -47.609375 20.640625 -57.5 20.640625 -68.40625 L 20.640625 -176.640625 L 43.484375 -176.640625 L 43.484375 -70.09375 C 43.484375 -62.90625 44.582031 -56.148438 46.78125 -49.828125 C 48.988281 -43.515625 52.234375 -37.9375 56.515625 -33.09375 C 60.804688 -28.25 66.066406 -24.460938 72.296875 -21.734375 C 78.523438 -19.015625 85.660156 -17.65625 93.703125 -17.65625 C 101.578125 -17.65625 108.609375 -18.992188 114.796875 -21.671875 C 120.984375 -24.359375 126.238281 -28.101562 130.5625 -32.90625 C 134.894531 -37.707031 138.1875 -43.265625 140.4375 -49.578125 C 142.6875 -55.898438 143.8125 -62.648438 143.8125 -69.828125 L 143.8125 -176.640625 L 166.78125 -176.640625 L 166.78125 -68.40625 C 166.78125 -57.757812 164.984375 -48.019531 161.390625 -39.1875 C 157.804688 -30.363281 152.742188 -22.769531 146.203125 -16.40625 C 139.671875 -10.050781 131.945312 -5.117188 123.03125 -1.609375 C 114.125 1.890625 104.347656 3.640625 93.703125 3.640625 Z M 93.703125 3.640625 "/></g></g></g><g fill="#3d7c65" fill-opacity="1"><g transform="translate(1127.490263, 787.394672)"><g><path d="M 85.140625 0 L 62.171875 0 L 62.171875 -155.875 L 6.359375 -155.875 L 6.359375 -176.515625 L 141.078125 -176.515625 L 141.078125 -155.875 L 85.140625 -155.875 Z M 85.140625 0 "/></g></g></g><g fill="#545454" fill-opacity="1"><g transform="translate(355.304797, 906.498598)"><g><path d="M 39.3125 0 L 33.78125 0 L 29.96875 -9.078125 L 9.71875 -9.078125 L 5.921875 0 L 0.390625 0 L 17.359375 -40.078125 L 22.375 -40.078125 Z M 19.65625 -32.75 L 11.578125 -13.5 L 28.109375 -13.5 L 20.046875 -32.75 L 19.890625 -33.421875 L 19.828125 -33.421875 Z M 19.65625 -32.75 "/></g></g></g><g fill="#545454" fill-opacity="1"><g transform="translate(391.376937, 906.498598)"><g/></g></g><g fill="#545454" fill-opacity="1"><g transform="translate(402.66604, 906.498598)"><g><path d="M 17.953125 0.859375 C 15.234375 0.859375 12.878906 0.5 10.890625 -0.21875 C 8.910156 -0.9375 7.273438 -1.894531 5.984375 -3.09375 C 4.703125 -4.289062 3.75 -5.628906 3.125 -7.109375 C 2.507812 -8.597656 2.203125 -10.097656 2.203125 -11.609375 L 7.421875 -11.609375 C 7.421875 -10.210938 7.835938 -8.90625 8.671875 -7.6875 C 9.515625 -6.46875 10.71875 -5.484375 12.28125 -4.734375 C 13.84375 -3.992188 15.722656 -3.625 17.921875 -3.625 C 21.335938 -3.625 23.957031 -4.25 25.78125 -5.5 C 27.613281 -6.75 28.53125 -8.609375 28.53125 -11.078125 C 28.53125 -12.648438 28.070312 -13.914062 27.15625 -14.875 C 26.238281 -15.84375 24.992188 -16.597656 23.421875 -17.140625 C 21.859375 -17.679688 20.070312 -18.097656 18.0625 -18.390625 C 16.726562 -18.609375 15.363281 -18.890625 13.96875 -19.234375 C 12.570312 -19.578125 11.234375 -20.019531 9.953125 -20.5625 C 8.679688 -21.113281 7.539062 -21.796875 6.53125 -22.609375 C 5.519531 -23.429688 4.71875 -24.4375 4.125 -25.625 C 3.53125 -26.8125 3.234375 -28.210938 3.234375 -29.828125 C 3.234375 -31.316406 3.503906 -32.734375 4.046875 -34.078125 C 4.585938 -35.429688 5.4375 -36.625 6.59375 -37.65625 C 7.757812 -38.6875 9.257812 -39.492188 11.09375 -40.078125 C 12.9375 -40.671875 15.160156 -40.96875 17.765625 -40.96875 C 20.910156 -40.96875 23.550781 -40.476562 25.6875 -39.5 C 27.832031 -38.53125 29.457031 -37.191406 30.5625 -35.484375 C 31.664062 -33.773438 32.21875 -31.800781 32.21875 -29.5625 L 26.96875 -29.5625 C 26.96875 -30.894531 26.613281 -32.070312 25.90625 -33.09375 C 25.195312 -34.113281 24.15625 -34.914062 22.78125 -35.5 C 21.40625 -36.082031 19.71875 -36.375 17.71875 -36.375 C 15.90625 -36.375 14.398438 -36.1875 13.203125 -35.8125 C 12.003906 -35.4375 11.0625 -34.9375 10.375 -34.3125 C 9.6875 -33.695312 9.191406 -32.992188 8.890625 -32.203125 C 8.597656 -31.421875 8.453125 -30.617188 8.453125 -29.796875 C 8.453125 -28.398438 8.890625 -27.242188 9.765625 -26.328125 C 10.640625 -25.421875 11.910156 -24.691406 13.578125 -24.140625 C 15.253906 -23.585938 17.289062 -23.144531 19.6875 -22.8125 C 21.019531 -22.59375 22.359375 -22.304688 23.703125 -21.953125 C 25.054688 -21.597656 26.335938 -21.140625 27.546875 -20.578125 C 28.753906 -20.023438 29.828125 -19.320312 30.765625 -18.46875 C 31.710938 -17.613281 32.457031 -16.582031 33 -15.375 C 33.539062 -14.164062 33.8125 -12.734375 33.8125 -11.078125 C 33.8125 -8.585938 33.171875 -6.445312 31.890625 -4.65625 C 30.609375 -2.863281 28.785156 -1.492188 26.421875 -0.546875 C 24.054688 0.390625 21.234375 0.859375 17.953125 0.859375 Z M 17.953125 0.859375 "/></g></g></g><g fill="#545454" fill-opacity="1"><g transform="translate(434.907272, 906.498598)"><g><path d="M 22.015625 0 L 16.46875 0 C 15.332031 0 14.203125 -0.144531 13.078125 -0.4375 C 11.960938 -0.738281 10.945312 -1.28125 10.03125 -2.0625 C 9.125 -2.84375 8.394531 -3.96875 7.84375 -5.4375 C 7.289062 -6.90625 7.015625 -8.804688 7.015625 -11.140625 L 7.015625 -25.609375 L 0.328125 -25.609375 L 0.328125 -30.0625 L 7.015625 -30.0625 L 7.015625 -38.984375 L 12.078125 -39.015625 L 12.078125 -30.0625 L 22.015625 -30.0625 L 22.015625 -25.609375 L 12.078125 -25.609375 L 12.078125 -10.90625 C 12.078125 -9.507812 12.226562 -8.375 12.53125 -7.5 C 12.84375 -6.625 13.257812 -5.953125 13.78125 -5.484375 C 14.300781 -5.023438 14.878906 -4.710938 15.515625 -4.546875 C 16.148438 -4.378906 16.804688 -4.296875 17.484375 -4.296875 L 22.015625 -4.296875 Z M 22.015625 0 "/></g></g></g><g fill="#545454" fill-opacity="1"><g transform="translate(454.977998, 906.498598)"><g><path d="M 9.96875 0 L 4.859375 0 L 4.859375 -30.0625 L 9.75 -30.0625 L 9.75 -23.34375 C 10.5 -25.425781 11.664062 -27.066406 13.25 -28.265625 C 14.832031 -29.460938 16.710938 -30.0625 18.890625 -30.0625 L 21.8125 -30.0625 L 21.8125 -25.609375 L 19.15625 -25.609375 C 17.40625 -25.609375 15.832031 -25.15625 14.4375 -24.25 C 13.039062 -23.351562 11.945312 -22.046875 11.15625 -20.328125 C 10.363281 -18.617188 9.96875 -16.554688 9.96875 -14.140625 Z M 9.96875 0 "/></g></g></g><g fill="#545454" fill-opacity="1"><g transform="translate(472.779442, 906.498598)"><g><path d="M 16.859375 0.859375 C 14.796875 0.859375 12.882812 0.453125 11.125 -0.359375 C 9.363281 -1.179688 7.820312 -2.316406 6.5 -3.765625 C 5.1875 -5.222656 4.160156 -6.914062 3.421875 -8.84375 C 2.691406 -10.769531 2.328125 -12.832031 2.328125 -15.03125 C 2.328125 -17.226562 2.691406 -19.285156 3.421875 -21.203125 C 4.160156 -23.117188 5.1875 -24.800781 6.5 -26.25 C 7.820312 -27.707031 9.363281 -28.84375 11.125 -29.65625 C 12.882812 -30.476562 14.785156 -30.890625 16.828125 -30.890625 C 18.640625 -30.890625 20.320312 -30.59375 21.875 -30 C 23.425781 -29.414062 24.796875 -28.578125 25.984375 -27.484375 C 27.171875 -26.390625 28.097656 -25.097656 28.765625 -23.609375 L 28.765625 -30.0625 L 33.625 -30.0625 L 33.625 0 L 28.765625 0 L 28.765625 -6.390625 C 28.097656 -4.921875 27.171875 -3.640625 25.984375 -2.546875 C 24.796875 -1.453125 23.425781 -0.609375 21.875 -0.015625 C 20.320312 0.566406 18.648438 0.859375 16.859375 0.859375 Z M 17.984375 -3.890625 C 19.453125 -3.890625 20.828125 -4.164062 22.109375 -4.71875 C 23.398438 -5.28125 24.523438 -6.066406 25.484375 -7.078125 C 26.453125 -8.097656 27.210938 -9.285156 27.765625 -10.640625 C 28.316406 -11.992188 28.59375 -13.457031 28.59375 -15.03125 C 28.59375 -16.582031 28.316406 -18.03125 27.765625 -19.375 C 27.210938 -20.71875 26.445312 -21.894531 25.46875 -22.90625 C 24.5 -23.925781 23.375 -24.71875 22.09375 -25.28125 C 20.820312 -25.851562 19.457031 -26.140625 18 -26.140625 C 16.53125 -26.140625 15.15625 -25.867188 13.875 -25.328125 C 12.601562 -24.785156 11.472656 -24.015625 10.484375 -23.015625 C 9.503906 -22.015625 8.738281 -20.84375 8.1875 -19.5 C 7.644531 -18.15625 7.375 -16.664062 7.375 -15.03125 C 7.375 -13.363281 7.648438 -11.84375 8.203125 -10.46875 C 8.765625 -9.101562 9.53125 -7.929688 10.5 -6.953125 C 11.476562 -5.972656 12.609375 -5.21875 13.890625 -4.6875 C 15.179688 -4.15625 16.546875 -3.890625 17.984375 -3.890625 Z M 17.984375 -3.890625 "/></g></g></g><g fill="#545454" fill-opacity="1"><g transform="translate(507.643372, 906.498598)"><g><path d="M 22.015625 0 L 16.46875 0 C 15.332031 0 14.203125 -0.144531 13.078125 -0.4375 C 11.960938 -0.738281 10.945312 -1.28125 10.03125 -2.0625 C 9.125 -2.84375 8.394531 -3.96875 7.84375 -5.4375 C 7.289062 -6.90625 7.015625 -8.804688 7.015625 -11.140625 L 7.015625 -25.609375 L 0.328125 -25.609375 L 0.328125 -30.0625 L 7.015625 -30.0625 L 7.015625 -38.984375 L 12.078125 -39.015625 L 12.078125 -30.0625 L 22.015625 -30.0625 L 22.015625 -25.609375 L 12.078125 -25.609375 L 12.078125 -10.90625 C 12.078125 -9.507812 12.226562 -8.375 12.53125 -7.5 C 12.84375 -6.625 13.257812 -5.953125 13.78125 -5.484375 C 14.300781 -5.023438 14.878906 -4.710938 15.515625 -4.546875 C 16.148438 -4.378906 16.804688 -4.296875 17.484375 -4.296875 L 22.015625 -4.296875 Z M 22.015625 0 "/></g></g></g><g fill="#545454" fill-opacity="1"><g transform="translate(526.770969, 906.498598)"><g><path d="M 32.484375 -15.765625 C 32.484375 -15.515625 32.476562 -15.242188 32.46875 -14.953125 C 32.457031 -14.671875 32.429688 -14.253906 32.390625 -13.703125 L 7.453125 -13.703125 C 7.671875 -11.703125 8.257812 -9.960938 9.21875 -8.484375 C 10.1875 -7.015625 11.394531 -5.878906 12.84375 -5.078125 C 14.300781 -4.285156 15.851562 -3.890625 17.5 -3.890625 C 19.53125 -3.890625 21.257812 -4.328125 22.6875 -5.203125 C 24.125 -6.078125 25.175781 -7.359375 25.84375 -9.046875 L 31.53125 -9.046875 C 31.101562 -7.671875 30.460938 -6.382812 29.609375 -5.1875 C 28.753906 -3.988281 27.722656 -2.941406 26.515625 -2.046875 C 25.304688 -1.148438 23.945312 -0.445312 22.4375 0.0625 C 20.9375 0.570312 19.332031 0.828125 17.625 0.828125 C 15.445312 0.828125 13.425781 0.421875 11.5625 -0.390625 C 9.707031 -1.210938 8.085938 -2.347656 6.703125 -3.796875 C 5.316406 -5.253906 4.238281 -6.941406 3.46875 -8.859375 C 2.707031 -10.773438 2.328125 -12.832031 2.328125 -15.03125 C 2.328125 -17.226562 2.707031 -19.285156 3.46875 -21.203125 C 4.238281 -23.117188 5.316406 -24.800781 6.703125 -26.25 C 8.085938 -27.707031 9.707031 -28.847656 11.5625 -29.671875 C 13.425781 -30.503906 15.445312 -30.921875 17.625 -30.921875 C 19.78125 -30.921875 21.765625 -30.515625 23.578125 -29.703125 C 25.398438 -28.898438 26.972656 -27.789062 28.296875 -26.375 C 29.628906 -24.957031 30.660156 -23.335938 31.390625 -21.515625 C 32.117188 -19.703125 32.484375 -17.785156 32.484375 -15.765625 Z M 7.6875 -18.1875 L 27.296875 -18.1875 C 27.210938 -19.25 26.898438 -20.257812 26.359375 -21.21875 C 25.816406 -22.1875 25.101562 -23.035156 24.21875 -23.765625 C 23.34375 -24.503906 22.328125 -25.082031 21.171875 -25.5 C 20.023438 -25.925781 18.8125 -26.140625 17.53125 -26.140625 C 16.039062 -26.140625 14.617188 -25.832031 13.265625 -25.21875 C 11.910156 -24.613281 10.738281 -23.722656 9.75 -22.546875 C 8.769531 -21.367188 8.082031 -19.914062 7.6875 -18.1875 Z M 7.6875 -18.1875 "/></g></g></g><g fill="#545454" fill-opacity="1"><g transform="translate(557.479836, 906.498598)"><g><path d="M 18.03125 11.3125 C 15.5 11.3125 13.335938 10.992188 11.546875 10.359375 C 9.765625 9.722656 8.296875 8.867188 7.140625 7.796875 C 5.992188 6.722656 5.132812 5.523438 4.5625 4.203125 C 4 2.890625 3.675781 1.546875 3.59375 0.171875 L 8.40625 0.171875 C 8.59375 1.367188 9.023438 2.488281 9.703125 3.53125 C 10.390625 4.570312 11.40625 5.40625 12.75 6.03125 C 14.09375 6.664062 15.851562 6.984375 18.03125 6.984375 C 19.976562 6.984375 21.632812 6.679688 23 6.078125 C 24.363281 5.484375 25.46875 4.671875 26.3125 3.640625 C 27.164062 2.609375 27.785156 1.441406 28.171875 0.140625 C 28.566406 -1.148438 28.765625 -2.492188 28.765625 -3.890625 L 28.765625 -7.609375 C 28.054688 -6.085938 27.113281 -4.800781 25.9375 -3.75 C 24.757812 -2.707031 23.414062 -1.914062 21.90625 -1.375 C 20.40625 -0.832031 18.800781 -0.5625 17.09375 -0.5625 C 14.96875 -0.5625 13.007812 -0.945312 11.21875 -1.71875 C 9.4375 -2.5 7.875 -3.582031 6.53125 -4.96875 C 5.195312 -6.351562 4.160156 -7.953125 3.421875 -9.765625 C 2.691406 -11.585938 2.328125 -13.53125 2.328125 -15.59375 C 2.328125 -17.65625 2.691406 -19.601562 3.421875 -21.4375 C 4.148438 -23.28125 5.175781 -24.90625 6.5 -26.3125 C 7.820312 -27.726562 9.375 -28.84375 11.15625 -29.65625 C 12.9375 -30.476562 14.867188 -30.890625 16.953125 -30.890625 C 18.867188 -30.890625 20.601562 -30.554688 22.15625 -29.890625 C 23.707031 -29.234375 25.046875 -28.351562 26.171875 -27.25 C 27.304688 -26.15625 28.171875 -24.941406 28.765625 -23.609375 L 28.765625 -30.0625 L 33.625 -30.0625 L 33.625 -4.03125 C 33.625 -1.945312 33.304688 0.0195312 32.671875 1.875 C 32.035156 3.726562 31.070312 5.363281 29.78125 6.78125 C 28.488281 8.195312 26.863281 9.304688 24.90625 10.109375 C 22.957031 10.910156 20.664062 11.3125 18.03125 11.3125 Z M 17.984375 -5.046875 C 19.453125 -5.046875 20.828125 -5.316406 22.109375 -5.859375 C 23.398438 -6.410156 24.523438 -7.171875 25.484375 -8.140625 C 26.453125 -9.117188 27.210938 -10.242188 27.765625 -11.515625 C 28.316406 -12.796875 28.59375 -14.15625 28.59375 -15.59375 C 28.59375 -17.03125 28.320312 -18.378906 27.78125 -19.640625 C 27.238281 -20.910156 26.476562 -22.03125 25.5 -23 C 24.53125 -23.976562 23.40625 -24.742188 22.125 -25.296875 C 20.851562 -25.859375 19.476562 -26.140625 18 -26.140625 C 16.53125 -26.140625 15.148438 -25.875 13.859375 -25.34375 C 12.578125 -24.8125 11.445312 -24.066406 10.46875 -23.109375 C 9.5 -22.160156 8.738281 -21.046875 8.1875 -19.765625 C 7.644531 -18.492188 7.375 -17.101562 7.375 -15.59375 C 7.375 -14.09375 7.644531 -12.703125 8.1875 -11.421875 C 8.738281 -10.148438 9.492188 -9.03125 10.453125 -8.0625 C 11.421875 -7.101562 12.546875 -6.359375 13.828125 -5.828125 C 15.117188 -5.304688 16.503906 -5.046875 17.984375 -5.046875 Z M 17.984375 -5.046875 "/></g></g></g><g fill="#545454" fill-opacity="1"><g transform="translate(592.343778, 906.498598)"><g><path d="M 6.453125 10.25 L 1.5 10.25 L 1.5 5.984375 L 6.484375 5.984375 C 7.703125 5.984375 8.679688 5.765625 9.421875 5.328125 C 10.171875 4.898438 10.804688 4.238281 11.328125 3.34375 C 11.847656 2.445312 12.363281 1.320312 12.875 -0.03125 L 13.203125 -0.890625 L 1.265625 -30.0625 L 6.65625 -30.0625 L 15.171875 -8.8125 L 15.890625 -6.15625 L 16.65625 -8.78125 L 25.109375 -30.03125 L 30.5 -30.0625 L 18.65625 -0.828125 C 17.8125 1.296875 17 3.066406 16.21875 4.484375 C 15.445312 5.910156 14.617188 7.046875 13.734375 7.890625 C 12.847656 8.742188 11.820312 9.347656 10.65625 9.703125 C 9.488281 10.066406 8.085938 10.25 6.453125 10.25 Z M 6.453125 10.25 "/></g></g></g><g fill="#545454" fill-opacity="1"><g transform="translate(619.604816, 906.498598)"><g/></g></g><g fill="#545454" fill-opacity="1"><g transform="translate(630.89393, 906.498598)"><g><path d="M 39.609375 0 L 33.453125 0 L 29.4375 -4.359375 C 27.613281 -2.765625 25.597656 -1.503906 23.390625 -0.578125 C 21.191406 0.335938 18.9375 0.796875 16.625 0.796875 C 14.675781 0.796875 12.863281 0.515625 11.1875 -0.046875 C 9.519531 -0.609375 8.066406 -1.398438 6.828125 -2.421875 C 5.597656 -3.441406 4.632812 -4.648438 3.9375 -6.046875 C 3.238281 -7.441406 2.890625 -8.984375 2.890625 -10.671875 C 2.890625 -12.222656 3.175781 -13.601562 3.75 -14.8125 C 4.332031 -16.019531 5.109375 -17.09375 6.078125 -18.03125 C 7.054688 -18.976562 8.125 -19.820312 9.28125 -20.5625 C 10.4375 -21.3125 11.597656 -22.003906 12.765625 -22.640625 C 11.992188 -23.328125 11.21875 -24.148438 10.4375 -25.109375 C 9.664062 -26.066406 9.019531 -27.113281 8.5 -28.25 C 7.976562 -29.394531 7.71875 -30.566406 7.71875 -31.765625 C 7.71875 -33.535156 8.160156 -35.113281 9.046875 -36.5 C 9.929688 -37.882812 11.175781 -38.976562 12.78125 -39.78125 C 14.394531 -40.59375 16.285156 -40.988281 18.453125 -40.96875 C 20.554688 -40.96875 22.390625 -40.609375 23.953125 -39.890625 C 25.515625 -39.171875 26.726562 -38.148438 27.59375 -36.828125 C 28.457031 -35.503906 28.890625 -33.925781 28.890625 -32.09375 C 28.890625 -30.820312 28.644531 -29.664062 28.15625 -28.625 C 27.675781 -27.59375 27.03125 -26.664062 26.21875 -25.84375 C 25.40625 -25.019531 24.472656 -24.269531 23.421875 -23.59375 C 22.367188 -22.914062 21.28125 -22.28125 20.15625 -21.6875 L 30 -10.84375 C 30.925781 -12.0625 31.691406 -13.390625 32.296875 -14.828125 C 32.910156 -16.273438 33.316406 -17.785156 33.515625 -19.359375 L 38.21875 -19.328125 C 38.007812 -17.109375 37.441406 -14.988281 36.515625 -12.96875 C 35.585938 -10.945312 34.421875 -9.085938 33.015625 -7.390625 C 34.109375 -6.160156 35.207031 -4.929688 36.3125 -3.703125 C 37.425781 -2.472656 38.523438 -1.238281 39.609375 0 Z M 16.734375 -24.578125 C 17.441406 -24.910156 18.203125 -25.285156 19.015625 -25.703125 C 19.835938 -26.128906 20.609375 -26.628906 21.328125 -27.203125 C 22.054688 -27.773438 22.648438 -28.453125 23.109375 -29.234375 C 23.578125 -30.023438 23.8125 -30.945312 23.8125 -32 C 23.8125 -33.414062 23.335938 -34.582031 22.390625 -35.5 C 21.453125 -36.414062 20.195312 -36.875 18.625 -36.875 C 17.34375 -36.875 16.269531 -36.617188 15.40625 -36.109375 C 14.550781 -35.597656 13.90625 -34.921875 13.46875 -34.078125 C 13.039062 -33.242188 12.828125 -32.335938 12.828125 -31.359375 C 12.828125 -30.492188 13.023438 -29.65625 13.421875 -28.84375 C 13.828125 -28.039062 14.332031 -27.28125 14.9375 -26.5625 C 15.550781 -25.851562 16.148438 -25.191406 16.734375 -24.578125 Z M 16.46875 -3.59375 C 18.34375 -3.59375 20.132812 -3.957031 21.84375 -4.6875 C 23.550781 -5.414062 25.09375 -6.40625 26.46875 -7.65625 C 24.675781 -9.644531 22.878906 -11.628906 21.078125 -13.609375 C 19.285156 -15.597656 17.484375 -17.578125 15.671875 -19.546875 C 14.828125 -19.085938 13.953125 -18.585938 13.046875 -18.046875 C 12.148438 -17.503906 11.316406 -16.894531 10.546875 -16.21875 C 9.785156 -15.539062 9.164062 -14.753906 8.6875 -13.859375 C 8.21875 -12.972656 7.984375 -11.945312 7.984375 -10.78125 C 7.984375 -9.332031 8.359375 -8.066406 9.109375 -6.984375 C 9.859375 -5.898438 10.875 -5.0625 12.15625 -4.46875 C 13.445312 -3.882812 14.882812 -3.59375 16.46875 -3.59375 Z M 16.46875 -3.59375 "/></g></g></g><g fill="#545454" fill-opacity="1"><g transform="translate(670.148673, 906.498598)"><g/></g></g><g fill="#545454" fill-opacity="1"><g transform="translate(681.437765, 906.498598)"><g><path d="M 23.453125 0.765625 C 21.117188 0.765625 18.894531 0.414062 16.78125 -0.28125 C 14.664062 -0.976562 12.734375 -1.957031 10.984375 -3.21875 C 9.242188 -4.488281 7.726562 -5.992188 6.4375 -7.734375 C 5.15625 -9.472656 4.164062 -11.382812 3.46875 -13.46875 C 2.769531 -15.550781 2.421875 -17.753906 2.421875 -20.078125 C 2.421875 -22.410156 2.769531 -24.625 3.46875 -26.71875 C 4.164062 -28.8125 5.15625 -30.726562 6.4375 -32.46875 C 7.726562 -34.207031 9.242188 -35.707031 10.984375 -36.96875 C 12.734375 -38.238281 14.664062 -39.222656 16.78125 -39.921875 C 18.894531 -40.617188 21.117188 -40.96875 23.453125 -40.96875 C 25.578125 -40.96875 27.664062 -40.664062 29.71875 -40.0625 C 31.769531 -39.46875 33.664062 -38.585938 35.40625 -37.421875 C 37.144531 -36.265625 38.644531 -34.847656 39.90625 -33.171875 C 41.164062 -31.492188 42.0625 -29.582031 42.59375 -27.4375 L 37.28125 -27.4375 C 36.53125 -29.269531 35.472656 -30.835938 34.109375 -32.140625 C 32.742188 -33.441406 31.144531 -34.4375 29.3125 -35.125 C 27.488281 -35.8125 25.5 -36.15625 23.34375 -36.15625 C 21.164062 -36.15625 19.125 -35.765625 17.21875 -34.984375 C 15.320312 -34.203125 13.648438 -33.085938 12.203125 -31.640625 C 10.765625 -30.191406 9.644531 -28.484375 8.84375 -26.515625 C 8.039062 -24.554688 7.640625 -22.410156 7.640625 -20.078125 C 7.640625 -17.710938 8.039062 -15.546875 8.84375 -13.578125 C 9.644531 -11.617188 10.765625 -9.925781 12.203125 -8.5 C 13.648438 -7.070312 15.320312 -5.96875 17.21875 -5.1875 C 19.125 -4.414062 21.164062 -4.03125 23.34375 -4.03125 C 25.625 -4.03125 27.632812 -4.347656 29.375 -4.984375 C 31.125 -5.628906 32.628906 -6.515625 33.890625 -7.640625 C 35.148438 -8.773438 36.15625 -10.085938 36.90625 -11.578125 C 37.664062 -13.078125 38.1875 -14.679688 38.46875 -16.390625 L 23.171875 -16.390625 L 23.171875 -21.109375 L 43.890625 -21.109375 C 43.890625 -18.078125 43.441406 -15.234375 42.546875 -12.578125 C 41.648438 -9.929688 40.328125 -7.609375 38.578125 -5.609375 C 36.828125 -3.617188 34.6875 -2.054688 32.15625 -0.921875 C 29.625 0.203125 26.722656 0.765625 23.453125 0.765625 Z M 23.453125 0.765625 "/></g></g></g><g fill="#545454" fill-opacity="1"><g transform="translate(724.110857, 906.498598)"><g><path d="M 9.96875 0 L 4.859375 0 L 4.859375 -30.0625 L 9.75 -30.0625 L 9.75 -23.34375 C 10.5 -25.425781 11.664062 -27.066406 13.25 -28.265625 C 14.832031 -29.460938 16.710938 -30.0625 18.890625 -30.0625 L 21.8125 -30.0625 L 21.8125 -25.609375 L 19.15625 -25.609375 C 17.40625 -25.609375 15.832031 -25.15625 14.4375 -24.25 C 13.039062 -23.351562 11.945312 -22.046875 11.15625 -20.328125 C 10.363281 -18.617188 9.96875 -16.554688 9.96875 -14.140625 Z M 9.96875 0 "/></g></g></g><g fill="#545454" fill-opacity="1"><g transform="translate(741.912277, 906.498598)"><g><path d="M 17.953125 0.859375 C 15.734375 0.859375 13.675781 0.453125 11.78125 -0.359375 C 9.882812 -1.179688 8.226562 -2.316406 6.8125 -3.765625 C 5.394531 -5.222656 4.289062 -6.914062 3.5 -8.84375 C 2.71875 -10.769531 2.328125 -12.832031 2.328125 -15.03125 C 2.328125 -17.226562 2.71875 -19.285156 3.5 -21.203125 C 4.289062 -23.117188 5.390625 -24.800781 6.796875 -26.25 C 8.203125 -27.707031 9.851562 -28.847656 11.75 -29.671875 C 13.644531 -30.503906 15.710938 -30.921875 17.953125 -30.921875 C 20.191406 -30.921875 22.265625 -30.507812 24.171875 -29.6875 C 26.078125 -28.875 27.734375 -27.738281 29.140625 -26.28125 C 30.554688 -24.832031 31.65625 -23.144531 32.4375 -21.21875 C 33.226562 -19.289062 33.625 -17.226562 33.625 -15.03125 C 33.625 -12.832031 33.226562 -10.769531 32.4375 -8.84375 C 31.65625 -6.914062 30.554688 -5.222656 29.140625 -3.765625 C 27.734375 -2.316406 26.078125 -1.179688 24.171875 -0.359375 C 22.265625 0.453125 20.191406 0.859375 17.953125 0.859375 Z M 18 -3.921875 C 19.5 -3.921875 20.882812 -4.191406 22.15625 -4.734375 C 23.4375 -5.285156 24.554688 -6.0625 25.515625 -7.0625 C 26.484375 -8.070312 27.234375 -9.253906 27.765625 -10.609375 C 28.296875 -11.960938 28.5625 -13.4375 28.5625 -15.03125 C 28.5625 -16.625 28.296875 -18.09375 27.765625 -19.4375 C 27.234375 -20.78125 26.484375 -21.953125 25.515625 -22.953125 C 24.554688 -23.960938 23.4375 -24.742188 22.15625 -25.296875 C 20.882812 -25.859375 19.5 -26.140625 18 -26.140625 C 16.507812 -26.140625 15.117188 -25.859375 13.828125 -25.296875 C 12.546875 -24.742188 11.421875 -23.960938 10.453125 -22.953125 C 9.492188 -21.953125 8.742188 -20.78125 8.203125 -19.4375 C 7.660156 -18.09375 7.390625 -16.625 7.390625 -15.03125 C 7.390625 -13.4375 7.660156 -11.960938 8.203125 -10.609375 C 8.742188 -9.253906 9.492188 -8.070312 10.453125 -7.0625 C 11.421875 -6.0625 12.546875 -5.285156 13.828125 -4.734375 C 15.117188 -4.191406 16.507812 -3.921875 18 -3.921875 Z M 18 -3.921875 "/></g></g></g><g fill="#545454" fill-opacity="1"><g transform="translate(773.239881, 906.498598)"><g><path d="M 15.390625 0 L 10.734375 0 L 0.390625 -30.0625 L 5.828125 -30.0625 L 12.96875 -8.34375 L 13.53125 -6.546875 L 13.59375 -6.546875 L 14.171875 -8.3125 L 21.015625 -30.0625 L 24.90625 -30.0625 L 31.53125 -8.6875 L 32.21875 -6.546875 L 32.296875 -6.546875 L 33.09375 -8.78125 L 40.078125 -30.0625 L 45.453125 -30.0625 L 35.109375 0 L 30.328125 0 L 22.90625 -22.515625 L 22.875 -22.515625 Z M 15.390625 0 "/></g></g></g><g fill="#545454" fill-opacity="1"><g transform="translate(815.795144, 906.498598)"><g><path d="M 22.015625 0 L 16.46875 0 C 15.332031 0 14.203125 -0.144531 13.078125 -0.4375 C 11.960938 -0.738281 10.945312 -1.28125 10.03125 -2.0625 C 9.125 -2.84375 8.394531 -3.96875 7.84375 -5.4375 C 7.289062 -6.90625 7.015625 -8.804688 7.015625 -11.140625 L 7.015625 -25.609375 L 0.328125 -25.609375 L 0.328125 -30.0625 L 7.015625 -30.0625 L 7.015625 -38.984375 L 12.078125 -39.015625 L 12.078125 -30.0625 L 22.015625 -30.0625 L 22.015625 -25.609375 L 12.078125 -25.609375 L 12.078125 -10.90625 C 12.078125 -9.507812 12.226562 -8.375 12.53125 -7.5 C 12.84375 -6.625 13.257812 -5.953125 13.78125 -5.484375 C 14.300781 -5.023438 14.878906 -4.710938 15.515625 -4.546875 C 16.148438 -4.378906 16.804688 -4.296875 17.484375 -4.296875 L 22.015625 -4.296875 Z M 22.015625 0 "/></g></g></g><g fill="#545454" fill-opacity="1"><g transform="translate(835.865882, 906.498598)"><g><path d="M 9.9375 0 L 4.859375 0 L 4.859375 -41.5 L 9.9375 -41.5 L 9.9375 -27.5625 L 9.84375 -24.34375 C 10.445312 -25.644531 11.28125 -26.789062 12.34375 -27.78125 C 13.40625 -28.769531 14.65625 -29.539062 16.09375 -30.09375 C 17.539062 -30.644531 19.113281 -30.921875 20.8125 -30.921875 C 24.800781 -30.921875 27.828125 -29.6875 29.890625 -27.21875 C 31.953125 -24.75 32.984375 -21.109375 32.984375 -16.296875 L 32.984375 0 L 27.90625 0 L 27.90625 -16.203125 C 27.90625 -19.660156 27.160156 -22.1875 25.671875 -23.78125 C 24.179688 -25.375 22.128906 -26.171875 19.515625 -26.171875 C 18.253906 -26.171875 17.046875 -25.921875 15.890625 -25.421875 C 14.742188 -24.921875 13.722656 -24.207031 12.828125 -23.28125 C 11.941406 -22.351562 11.238281 -21.253906 10.71875 -19.984375 C 10.195312 -18.722656 9.9375 -17.328125 9.9375 -15.796875 Z M 9.9375 0 "/></g></g></g><g fill="#545454" fill-opacity="1"><g transform="translate(869.727848, 906.498598)"><g/></g></g><g fill="#545454" fill-opacity="1"><g transform="translate(881.01694, 906.498598)"><g><path d="M 23.28125 0.796875 C 20.925781 0.796875 18.695312 0.445312 16.59375 -0.25 C 14.488281 -0.945312 12.570312 -1.929688 10.84375 -3.203125 C 9.113281 -4.484375 7.613281 -5.992188 6.34375 -7.734375 C 5.082031 -9.472656 4.109375 -11.382812 3.421875 -13.46875 C 2.734375 -15.550781 2.390625 -17.753906 2.390625 -20.078125 C 2.390625 -22.410156 2.734375 -24.625 3.421875 -26.71875 C 4.109375 -28.8125 5.082031 -30.726562 6.34375 -32.46875 C 7.613281 -34.207031 9.113281 -35.707031 10.84375 -36.96875 C 12.570312 -38.238281 14.488281 -39.222656 16.59375 -39.921875 C 18.695312 -40.617188 20.925781 -40.96875 23.28125 -40.96875 C 25.40625 -40.96875 27.476562 -40.664062 29.5 -40.0625 C 31.519531 -39.46875 33.382812 -38.566406 35.09375 -37.359375 C 36.8125 -36.148438 38.273438 -34.632812 39.484375 -32.8125 C 40.703125 -31 41.5625 -28.882812 42.0625 -26.46875 L 36.75 -26.46875 C 36.144531 -28.625 35.179688 -30.421875 33.859375 -31.859375 C 32.546875 -33.296875 30.96875 -34.367188 29.125 -35.078125 C 27.289062 -35.796875 25.296875 -36.15625 23.140625 -36.15625 C 20.953125 -36.15625 18.914062 -35.765625 17.03125 -34.984375 C 15.144531 -34.203125 13.5 -33.085938 12.09375 -31.640625 C 10.6875 -30.191406 9.585938 -28.488281 8.796875 -26.53125 C 8.003906 -24.582031 7.609375 -22.429688 7.609375 -20.078125 C 7.609375 -17.710938 8.003906 -15.546875 8.796875 -13.578125 C 9.585938 -11.617188 10.6875 -9.925781 12.09375 -8.5 C 13.5 -7.070312 15.144531 -5.96875 17.03125 -5.1875 C 18.914062 -4.414062 20.953125 -4.03125 23.140625 -4.03125 C 25.296875 -4.03125 27.285156 -4.390625 29.109375 -5.109375 C 30.941406 -5.828125 32.519531 -6.898438 33.84375 -8.328125 C 35.175781 -9.765625 36.132812 -11.554688 36.71875 -13.703125 L 42.0625 -13.703125 C 41.5625 -11.285156 40.707031 -9.164062 39.5 -7.34375 C 38.289062 -5.53125 36.832031 -4.019531 35.125 -2.8125 C 33.414062 -1.601562 31.550781 -0.695312 29.53125 -0.09375 C 27.507812 0.5 25.425781 0.796875 23.28125 0.796875 Z M 23.28125 0.796875 "/></g></g></g><g fill="#545454" fill-opacity="1"><g transform="translate(921.863006, 906.498598)"><g><path d="M 17.953125 0.859375 C 15.734375 0.859375 13.675781 0.453125 11.78125 -0.359375 C 9.882812 -1.179688 8.226562 -2.316406 6.8125 -3.765625 C 5.394531 -5.222656 4.289062 -6.914062 3.5 -8.84375 C 2.71875 -10.769531 2.328125 -12.832031 2.328125 -15.03125 C 2.328125 -17.226562 2.71875 -19.285156 3.5 -21.203125 C 4.289062 -23.117188 5.390625 -24.800781 6.796875 -26.25 C 8.203125 -27.707031 9.851562 -28.847656 11.75 -29.671875 C 13.644531 -30.503906 15.710938 -30.921875 17.953125 -30.921875 C 20.191406 -30.921875 22.265625 -30.507812 24.171875 -29.6875 C 26.078125 -28.875 27.734375 -27.738281 29.140625 -26.28125 C 30.554688 -24.832031 31.65625 -23.144531 32.4375 -21.21875 C 33.226562 -19.289062 33.625 -17.226562 33.625 -15.03125 C 33.625 -12.832031 33.226562 -10.769531 32.4375 -8.84375 C 31.65625 -6.914062 30.554688 -5.222656 29.140625 -3.765625 C 27.734375 -2.316406 26.078125 -1.179688 24.171875 -0.359375 C 22.265625 0.453125 20.191406 0.859375 17.953125 0.859375 Z M 18 -3.921875 C 19.5 -3.921875 20.882812 -4.191406 22.15625 -4.734375 C 23.4375 -5.285156 24.554688 -6.0625 25.515625 -7.0625 C 26.484375 -8.070312 27.234375 -9.253906 27.765625 -10.609375 C 28.296875 -11.960938 28.5625 -13.4375 28.5625 -15.03125 C 28.5625 -16.625 28.296875 -18.09375 27.765625 -19.4375 C 27.234375 -20.78125 26.484375 -21.953125 25.515625 -22.953125 C 24.554688 -23.960938 23.4375 -24.742188 22.15625 -25.296875 C 20.882812 -25.859375 19.5 -26.140625 18 -26.140625 C 16.507812 -26.140625 15.117188 -25.859375 13.828125 -25.296875 C 12.546875 -24.742188 11.421875 -23.960938 10.453125 -22.953125 C 9.492188 -21.953125 8.742188 -20.78125 8.203125 -19.4375 C 7.660156 -18.09375 7.390625 -16.625 7.390625 -15.03125 C 7.390625 -13.4375 7.660156 -11.960938 8.203125 -10.609375 C 8.742188 -9.253906 9.492188 -8.070312 10.453125 -7.0625 C 11.421875 -6.0625 12.546875 -5.285156 13.828125 -4.734375 C 15.117188 -4.191406 16.507812 -3.921875 18 -3.921875 Z M 18 -3.921875 "/></g></g></g><g fill="#545454" fill-opacity="1"><g transform="translate(954.192654, 906.498598)"><g><path d="M 9.9375 0 L 4.859375 0 L 4.859375 -30.0625 L 9.71875 -30.0625 L 9.71875 -24.25 C 10.289062 -25.550781 11.125 -26.703125 12.21875 -27.703125 C 13.3125 -28.703125 14.59375 -29.488281 16.0625 -30.0625 C 17.53125 -30.632812 19.113281 -30.921875 20.8125 -30.921875 C 24.800781 -30.921875 27.828125 -29.6875 29.890625 -27.21875 C 31.953125 -24.75 32.984375 -21.109375 32.984375 -16.296875 L 32.984375 0 L 27.90625 0 L 27.90625 -16.203125 C 27.90625 -19.660156 27.160156 -22.1875 25.671875 -23.78125 C 24.179688 -25.375 22.128906 -26.171875 19.515625 -26.171875 C 18.253906 -26.171875 17.046875 -25.929688 15.890625 -25.453125 C 14.742188 -24.984375 13.722656 -24.296875 12.828125 -23.390625 C 11.941406 -22.492188 11.238281 -21.40625 10.71875 -20.125 C 10.195312 -18.851562 9.9375 -17.410156 9.9375 -15.796875 Z M 9.9375 0 "/></g></g></g><g fill="#545454" fill-opacity="1"><g transform="translate(988.05462, 906.498598)"><g><path d="M 14.890625 0.859375 C 12.785156 0.859375 10.945312 0.578125 9.375 0.015625 C 7.800781 -0.546875 6.492188 -1.300781 5.453125 -2.25 C 4.410156 -3.207031 3.628906 -4.289062 3.109375 -5.5 C 2.585938 -6.707031 2.328125 -7.945312 2.328125 -9.21875 L 7.21875 -9.203125 C 7.238281 -8.117188 7.546875 -7.125 8.140625 -6.21875 C 8.742188 -5.3125 9.613281 -4.59375 10.75 -4.0625 C 11.894531 -3.53125 13.289062 -3.265625 14.9375 -3.265625 C 17.21875 -3.265625 18.9375 -3.710938 20.09375 -4.609375 C 21.257812 -5.503906 21.84375 -6.707031 21.84375 -8.21875 C 21.84375 -9.34375 21.535156 -10.222656 20.921875 -10.859375 C 20.316406 -11.492188 19.445312 -11.984375 18.3125 -12.328125 C 17.1875 -12.671875 15.835938 -12.972656 14.265625 -13.234375 C 12.867188 -13.453125 11.535156 -13.75 10.265625 -14.125 C 9.003906 -14.507812 7.878906 -15.035156 6.890625 -15.703125 C 5.910156 -16.367188 5.140625 -17.222656 4.578125 -18.265625 C 4.023438 -19.304688 3.75 -20.585938 3.75 -22.109375 C 3.75 -23.753906 4.144531 -25.238281 4.9375 -26.5625 C 5.726562 -27.894531 6.925781 -28.953125 8.53125 -29.734375 C 10.132812 -30.523438 12.125 -30.921875 14.5 -30.921875 C 16.820312 -30.921875 18.847656 -30.53125 20.578125 -29.75 C 22.304688 -28.976562 23.648438 -27.910156 24.609375 -26.546875 C 25.566406 -25.191406 26.046875 -23.640625 26.046875 -21.890625 L 21.078125 -21.890625 C 20.992188 -23.328125 20.375 -24.484375 19.21875 -25.359375 C 18.070312 -26.234375 16.5 -26.671875 14.5 -26.671875 C 13.207031 -26.671875 12.132812 -26.46875 11.28125 -26.0625 C 10.4375 -25.664062 9.800781 -25.128906 9.375 -24.453125 C 8.957031 -23.773438 8.75 -23.03125 8.75 -22.21875 C 8.75 -21.28125 8.957031 -20.503906 9.375 -19.890625 C 9.800781 -19.285156 10.539062 -18.789062 11.59375 -18.40625 C 12.644531 -18.019531 14.101562 -17.671875 15.96875 -17.359375 C 17.34375 -17.140625 18.6875 -16.859375 20 -16.515625 C 21.320312 -16.171875 22.507812 -15.6875 23.5625 -15.0625 C 24.613281 -14.4375 25.445312 -13.59375 26.0625 -12.53125 C 26.6875 -11.46875 27 -10.117188 27 -8.484375 C 27 -6.441406 26.488281 -4.722656 25.46875 -3.328125 C 24.445312 -1.929688 23.023438 -0.882812 21.203125 -0.1875 C 19.390625 0.507812 17.285156 0.859375 14.890625 0.859375 Z M 14.890625 0.859375 "/></g></g></g><g fill="#545454" fill-opacity="1"><g transform="translate(1013.488654, 906.498598)"><g><path d="M 17.765625 0.859375 C 15.765625 0.859375 13.925781 0.570312 12.25 0 C 10.582031 -0.570312 9.132812 -1.457031 7.90625 -2.65625 C 6.6875 -3.851562 5.734375 -5.390625 5.046875 -7.265625 C 4.367188 -9.140625 4.03125 -11.382812 4.03125 -14 L 4.03125 -30.0625 L 9.078125 -30.0625 L 9.078125 -14.140625 C 9.078125 -10.765625 9.828125 -8.21875 11.328125 -6.5 C 12.835938 -4.78125 14.96875 -3.921875 17.71875 -3.921875 C 20.488281 -3.921875 22.617188 -4.78125 24.109375 -6.5 C 25.597656 -8.21875 26.34375 -10.765625 26.34375 -14.140625 L 26.34375 -30.0625 L 31.421875 -30.0625 L 31.421875 -14 C 31.421875 -11.382812 31.082031 -9.140625 30.40625 -7.265625 C 29.726562 -5.390625 28.773438 -3.851562 27.546875 -2.65625 C 26.316406 -1.457031 24.867188 -0.570312 23.203125 0 C 21.546875 0.570312 19.734375 0.859375 17.765625 0.859375 Z M 17.765625 0.859375 "/></g></g></g><g fill="#545454" fill-opacity="1"><g transform="translate(1045.317325, 906.498598)"><g><path d="M 9.9375 0 L 4.859375 0 L 4.859375 -41.5625 L 9.9375 -41.5625 Z M 9.9375 0 "/></g></g></g><g fill="#545454" fill-opacity="1"><g transform="translate(1056.488543, 906.498598)"><g><path d="M 22.015625 0 L 16.46875 0 C 15.332031 0 14.203125 -0.144531 13.078125 -0.4375 C 11.960938 -0.738281 10.945312 -1.28125 10.03125 -2.0625 C 9.125 -2.84375 8.394531 -3.96875 7.84375 -5.4375 C 7.289062 -6.90625 7.015625 -8.804688 7.015625 -11.140625 L 7.015625 -25.609375 L 0.328125 -25.609375 L 0.328125 -30.0625 L 7.015625 -30.0625 L 7.015625 -38.984375 L 12.078125 -39.015625 L 12.078125 -30.0625 L 22.015625 -30.0625 L 22.015625 -25.609375 L 12.078125 -25.609375 L 12.078125 -10.90625 C 12.078125 -9.507812 12.226562 -8.375 12.53125 -7.5 C 12.84375 -6.625 13.257812 -5.953125 13.78125 -5.484375 C 14.300781 -5.023438 14.878906 -4.710938 15.515625 -4.546875 C 16.148438 -4.378906 16.804688 -4.296875 17.484375 -4.296875 L 22.015625 -4.296875 Z M 22.015625 0 "/></g></g></g><g fill="#545454" fill-opacity="1"><g transform="translate(1076.559281, 906.498598)"><g><path d="M 7.375 -35.921875 C 6.332031 -35.921875 5.5 -36.234375 4.875 -36.859375 C 4.257812 -37.492188 3.953125 -38.265625 3.953125 -39.171875 C 3.953125 -40.054688 4.257812 -40.8125 4.875 -41.4375 C 5.5 -42.0625 6.335938 -42.375 7.390625 -42.375 C 8.472656 -42.375 9.320312 -42.0625 9.9375 -41.4375 C 10.5625 -40.8125 10.875 -40.054688 10.875 -39.171875 C 10.875 -38.265625 10.5625 -37.492188 9.9375 -36.859375 C 9.320312 -36.234375 8.46875 -35.921875 7.375 -35.921875 Z M 9.9375 0 L 4.859375 0 L 4.859375 -30.0625 L 9.9375 -30.0625 Z M 9.9375 0 "/></g></g></g><g fill="#545454" fill-opacity="1"><g transform="translate(1087.730499, 906.498598)"><g><path d="M 9.9375 0 L 4.859375 0 L 4.859375 -30.0625 L 9.71875 -30.0625 L 9.71875 -24.25 C 10.289062 -25.550781 11.125 -26.703125 12.21875 -27.703125 C 13.3125 -28.703125 14.59375 -29.488281 16.0625 -30.0625 C 17.53125 -30.632812 19.113281 -30.921875 20.8125 -30.921875 C 24.800781 -30.921875 27.828125 -29.6875 29.890625 -27.21875 C 31.953125 -24.75 32.984375 -21.109375 32.984375 -16.296875 L 32.984375 0 L 27.90625 0 L 27.90625 -16.203125 C 27.90625 -19.660156 27.160156 -22.1875 25.671875 -23.78125 C 24.179688 -25.375 22.128906 -26.171875 19.515625 -26.171875 C 18.253906 -26.171875 17.046875 -25.929688 15.890625 -25.453125 C 14.742188 -24.984375 13.722656 -24.296875 12.828125 -23.390625 C 11.941406 -22.492188 11.238281 -21.40625 10.71875 -20.125 C 10.195312 -18.851562 9.9375 -17.410156 9.9375 -15.796875 Z M 9.9375 0 "/></g></g></g><g fill="#545454" fill-opacity="1"><g transform="translate(1121.592511, 906.498598)"><g><path d="M 18.03125 11.3125 C 15.5 11.3125 13.335938 10.992188 11.546875 10.359375 C 9.765625 9.722656 8.296875 8.867188 7.140625 7.796875 C 5.992188 6.722656 5.132812 5.523438 4.5625 4.203125 C 4 2.890625 3.675781 1.546875 3.59375 0.171875 L 8.40625 0.171875 C 8.59375 1.367188 9.023438 2.488281 9.703125 3.53125 C 10.390625 4.570312 11.40625 5.40625 12.75 6.03125 C 14.09375 6.664062 15.851562 6.984375 18.03125 6.984375 C 19.976562 6.984375 21.632812 6.679688 23 6.078125 C 24.363281 5.484375 25.46875 4.671875 26.3125 3.640625 C 27.164062 2.609375 27.785156 1.441406 28.171875 0.140625 C 28.566406 -1.148438 28.765625 -2.492188 28.765625 -3.890625 L 28.765625 -7.609375 C 28.054688 -6.085938 27.113281 -4.800781 25.9375 -3.75 C 24.757812 -2.707031 23.414062 -1.914062 21.90625 -1.375 C 20.40625 -0.832031 18.800781 -0.5625 17.09375 -0.5625 C 14.96875 -0.5625 13.007812 -0.945312 11.21875 -1.71875 C 9.4375 -2.5 7.875 -3.582031 6.53125 -4.96875 C 5.195312 -6.351562 4.160156 -7.953125 3.421875 -9.765625 C 2.691406 -11.585938 2.328125 -13.53125 2.328125 -15.59375 C 2.328125 -17.65625 2.691406 -19.601562 3.421875 -21.4375 C 4.148438 -23.28125 5.175781 -24.90625 6.5 -26.3125 C 7.820312 -27.726562 9.375 -28.84375 11.15625 -29.65625 C 12.9375 -30.476562 14.867188 -30.890625 16.953125 -30.890625 C 18.867188 -30.890625 20.601562 -30.554688 22.15625 -29.890625 C 23.707031 -29.234375 25.046875 -28.351562 26.171875 -27.25 C 27.304688 -26.15625 28.171875 -24.941406 28.765625 -23.609375 L 28.765625 -30.0625 L 33.625 -30.0625 L 33.625 -4.03125 C 33.625 -1.945312 33.304688 0.0195312 32.671875 1.875 C 32.035156 3.726562 31.070312 5.363281 29.78125 6.78125 C 28.488281 8.195312 26.863281 9.304688 24.90625 10.109375 C 22.957031 10.910156 20.664062 11.3125 18.03125 11.3125 Z M 17.984375 -5.046875 C 19.453125 -5.046875 20.828125 -5.316406 22.109375 -5.859375 C 23.398438 -6.410156 24.523438 -7.171875 25.484375 -8.140625 C 26.453125 -9.117188 27.210938 -10.242188 27.765625 -11.515625 C 28.316406 -12.796875 28.59375 -14.15625 28.59375 -15.59375 C 28.59375 -17.03125 28.320312 -18.378906 27.78125 -19.640625 C 27.238281 -20.910156 26.476562 -22.03125 25.5 -23 C 24.53125 -23.976562 23.40625 -24.742188 22.125 -25.296875 C 20.851562 -25.859375 19.476562 -26.140625 18 -26.140625 C 16.53125 -26.140625 15.148438 -25.875 13.859375 -25.34375 C 12.578125 -24.8125 11.445312 -24.066406 10.46875 -23.109375 C 9.5 -22.160156 8.738281 -21.046875 8.1875 -19.765625 C 7.644531 -18.492188 7.375 -17.101562 7.375 -15.59375 C 7.375 -14.09375 7.644531 -12.703125 8.1875 -11.421875 C 8.738281 -10.148438 9.492188 -9.03125 10.453125 -8.0625 C 11.421875 -7.101562 12.546875 -6.359375 13.828125 -5.828125 C 15.117188 -5.304688 16.503906 -5.046875 17.984375 -5.046875 Z M 17.984375 -5.046875 "/></g></g></g><g fill="#3d7c65" fill-opacity="1"><g transform="translate(197.443551, 784.240352)"><g><path d="M 178.15625 -249.703125 C 191.082031 -249.703125 202.171875 -246.75 211.421875 -240.84375 C 220.671875 -234.9375 227.691406 -227.46875 232.484375 -218.4375 C 237.273438 -209.414062 239.390625 -200.054688 238.828125 -190.359375 C 238.273438 -180.671875 234.765625 -172.148438 228.296875 -164.796875 C 222.285156 -158.109375 215.878906 -153.648438 209.078125 -151.421875 C 202.285156 -149.191406 195.65625 -148.519531 189.1875 -149.40625 C 182.726562 -150.300781 176.9375 -152.304688 171.8125 -155.421875 C 166.6875 -158.546875 162.785156 -162.113281 160.109375 -166.125 C 157.660156 -170.132812 156.320312 -174.925781 156.09375 -180.5 C 155.875 -186.070312 157.101562 -191.195312 159.78125 -195.875 C 162.457031 -200.5625 166.691406 -203.347656 172.484375 -204.234375 C 170.472656 -199.773438 170.25 -195.707031 171.8125 -192.03125 C 173.375 -188.351562 175.9375 -185.457031 179.5 -183.34375 C 183.0625 -181.226562 187.070312 -180.054688 191.53125 -179.828125 C 195.988281 -179.609375 200.113281 -180.613281 203.90625 -182.84375 C 211.925781 -187.519531 216.882812 -193.203125 218.78125 -199.890625 C 220.675781 -206.578125 220.171875 -213.148438 217.265625 -219.609375 C 214.367188 -226.078125 209.632812 -231.367188 203.0625 -235.484375 C 196.488281 -239.609375 188.578125 -241.726562 179.328125 -241.84375 C 170.085938 -241.957031 160.117188 -238.78125 149.421875 -232.3125 C 141.398438 -227.632812 135.550781 -220.894531 131.875 -212.09375 C 128.195312 -203.289062 126.523438 -193.257812 126.859375 -182 C 127.191406 -170.75 129.304688 -158.941406 133.203125 -146.578125 C 137.097656 -134.210938 142.613281 -121.898438 149.75 -109.640625 C 155.988281 -99.160156 160.722656 -87.457031 163.953125 -74.53125 C 167.179688 -61.613281 168.347656 -48.691406 167.453125 -35.765625 C 166.566406 -22.835938 162.945312 -10.914062 156.59375 0 C 150.25 10.914062 140.671875 19.660156 127.859375 26.234375 C 115.046875 32.804688 98.390625 36.09375 77.890625 36.09375 C 62.953125 36.09375 50.191406 33.363281 39.609375 27.90625 C 29.023438 22.445312 20.613281 15.316406 14.375 6.515625 C 8.132812 -2.285156 3.953125 -11.8125 1.828125 -22.0625 C -0.285156 -32.3125 -0.453125 -42.394531 1.328125 -52.3125 C 3.117188 -62.226562 6.796875 -71.085938 12.359375 -78.890625 C 17.929688 -86.691406 25.285156 -92.257812 34.421875 -95.59375 C 45.347656 -99.832031 55.15625 -101.503906 63.84375 -100.609375 C 72.53125 -99.722656 79.769531 -97.441406 85.5625 -93.765625 C 91.363281 -90.085938 95.265625 -86.128906 97.265625 -81.890625 C 100.390625 -75.648438 101.335938 -69.46875 100.109375 -63.34375 C 98.890625 -57.21875 95.601562 -51.8125 90.25 -47.125 C 90.25 -47.125 89.859375 -48.570312 89.078125 -51.46875 C 88.296875 -54.375 86.734375 -57.492188 84.390625 -60.828125 C 82.054688 -64.171875 78.550781 -66.675781 73.875 -68.34375 C 69.195312 -70.019531 62.957031 -69.742188 55.15625 -67.515625 C 48.019531 -65.515625 42.113281 -61.953125 37.4375 -56.828125 C 32.757812 -51.703125 29.359375 -45.796875 27.234375 -39.109375 C 25.117188 -32.421875 24.285156 -25.675781 24.734375 -18.875 C 25.179688 -12.082031 27.078125 -6.015625 30.421875 -0.671875 C 34.878906 6.679688 41.117188 12.53125 49.140625 16.875 C 57.160156 21.226562 65.90625 23.847656 75.375 24.734375 C 84.84375 25.628906 94.035156 24.347656 102.953125 20.890625 C 111.867188 17.429688 119.332031 11.472656 125.34375 3.015625 C 132.03125 -6.347656 135.648438 -15.65625 136.203125 -24.90625 C 136.765625 -34.15625 135.429688 -43.566406 132.203125 -53.140625 C 128.972656 -62.722656 124.90625 -72.640625 120 -82.890625 C 115.09375 -93.148438 110.46875 -103.679688 106.125 -114.484375 C 101.78125 -125.296875 98.769531 -136.660156 97.09375 -148.578125 C 95.425781 -160.503906 96.265625 -172.929688 99.609375 -185.859375 C 105.398438 -208.585938 115.203125 -224.910156 129.015625 -234.828125 C 142.835938 -244.742188 159.21875 -249.703125 178.15625 -249.703125 Z M 178.15625 -249.703125 "/></g></g></g><g fill="#3d7c65" fill-opacity="1"><g transform="translate(425.413547, 784.240352)"><g><path d="M 26.40625 -40.78125 C 29.300781 -43.675781 33.03125 -47.910156 37.59375 -53.484375 C 42.164062 -59.054688 47.179688 -65.238281 52.640625 -72.03125 C 58.109375 -78.832031 63.40625 -85.570312 68.53125 -92.25 L 77.546875 -92.25 C 70.859375 -83.113281 63.554688 -73.476562 55.640625 -63.34375 C 47.734375 -53.207031 39.65625 -43.515625 31.40625 -34.265625 C 23.164062 -25.015625 15.257812 -17.269531 7.6875 -11.03125 C 0.113281 -4.789062 -6.570312 -1.003906 -12.375 0.328125 C -21.507812 2.335938 -28.082031 1.617188 -32.09375 -1.828125 C -36.101562 -5.285156 -38.050781 -10.46875 -37.9375 -17.375 C -37.820312 -24.289062 -36.203125 -31.976562 -33.078125 -40.4375 C -29.960938 -48.90625 -25.84375 -57.265625 -20.71875 -65.515625 C -16.707031 -71.972656 -10.410156 -81.550781 -1.828125 -94.25 C 6.742188 -106.957031 16.046875 -120.664062 26.078125 -135.375 L 13.375 -135.375 L 13.375 -140.0625 L 29.078125 -140.0625 L 50.8125 -171.8125 C 50.8125 -171.8125 54.097656 -171.585938 60.671875 -171.140625 C 67.242188 -170.691406 74.316406 -170.914062 81.890625 -171.8125 C 81.671875 -171.59375 79.441406 -168.53125 75.203125 -162.625 C 70.972656 -156.71875 65.628906 -149.195312 59.171875 -140.0625 L 72.203125 -140.0625 L 72.203125 -135.375 L 55.828125 -135.375 C 49.585938 -126.457031 43.007812 -116.929688 36.09375 -106.796875 C 29.1875 -96.660156 22.613281 -86.742188 16.375 -77.046875 C 10.132812 -67.347656 4.726562 -58.597656 0.15625 -50.796875 C -4.40625 -43.003906 -7.46875 -37.101562 -9.03125 -33.09375 C -12.144531 -24.175781 -13.253906 -18.378906 -12.359375 -15.703125 C -11.472656 -13.035156 -9.414062 -12.367188 -6.1875 -13.703125 C -2.957031 -15.035156 0.828125 -17.484375 5.171875 -21.046875 C 9.523438 -24.617188 13.648438 -28.296875 17.546875 -32.078125 C 21.453125 -35.867188 24.40625 -38.769531 26.40625 -40.78125 Z M 26.40625 -40.78125 "/></g></g></g><g fill="#3d7c65" fill-opacity="1"><g transform="translate(493.269704, 784.240352)"><g><path d="M 137.046875 -92.25 L 146.75 -92.25 C 140.0625 -83.113281 132.816406 -73.304688 125.015625 -62.828125 C 117.210938 -52.359375 109.300781 -42.441406 101.28125 -33.078125 C 93.257812 -23.722656 85.238281 -15.867188 77.21875 -9.515625 C 69.195312 -3.171875 61.617188 0.332031 54.484375 1 C 46.460938 1.894531 41.171875 0.00390625 38.609375 -4.671875 C 36.046875 -9.359375 35.320312 -14.929688 36.4375 -21.390625 C 38 -29.640625 41.171875 -38.332031 45.953125 -47.46875 C 50.742188 -56.601562 55.867188 -65.457031 61.328125 -74.03125 C 66.796875 -82.613281 71.585938 -90.300781 75.703125 -97.09375 C 79.828125 -103.894531 82.164062 -109.359375 82.71875 -113.484375 C 83.28125 -117.609375 80.890625 -119.671875 75.546875 -119.671875 C 69.972656 -119.671875 62.453125 -116.492188 52.984375 -110.140625 C 43.515625 -103.785156 32.59375 -92.640625 20.21875 -76.703125 C 7.851562 -60.773438 -5.457031 -38.550781 -19.71875 -10.03125 C -22.175781 -4.675781 -23.40625 -1.222656 -23.40625 0.328125 L -51.140625 0.328125 C -37.992188 -29.304688 -25.625 -53.757812 -14.03125 -73.03125 C -2.445312 -92.3125 6.960938 -106.628906 14.203125 -115.984375 C 21.441406 -125.347656 25.0625 -130.03125 25.0625 -130.03125 C 25.0625 -130.03125 28.070312 -129.75 34.09375 -129.1875 C 40.113281 -128.632812 48.691406 -128.914062 59.828125 -130.03125 C 57.828125 -128.695312 55.039062 -126.359375 51.46875 -123.015625 C 47.90625 -119.671875 44.34375 -116.046875 40.78125 -112.140625 C 37.21875 -108.242188 34.320312 -104.625 32.09375 -101.28125 L 29.75 -97.609375 C 40.21875 -109.859375 49.796875 -118.320312 58.484375 -123 C 67.179688 -127.6875 75.207031 -130.03125 82.5625 -130.03125 C 91.25 -130.03125 97.207031 -128.359375 100.4375 -125.015625 C 103.675781 -121.671875 105.015625 -117.210938 104.453125 -111.640625 C 103.898438 -106.066406 102.117188 -99.9375 99.109375 -93.25 C 96.097656 -86.570312 92.53125 -79.773438 88.40625 -72.859375 C 84.289062 -65.953125 80.394531 -59.546875 76.71875 -53.640625 C 73.039062 -47.742188 70.195312 -42.789062 68.1875 -38.78125 C 63.726562 -29.863281 61.390625 -23.734375 61.171875 -20.390625 C 60.953125 -17.046875 62.175781 -15.597656 64.84375 -16.046875 C 67.519531 -16.492188 70.863281 -18.050781 74.875 -20.71875 C 78.882812 -23.394531 82.835938 -26.40625 86.734375 -29.75 C 90.640625 -33.09375 93.59375 -35.988281 95.59375 -38.4375 C 98.269531 -41.5625 102.113281 -46.296875 107.125 -52.640625 C 112.144531 -58.992188 117.4375 -65.734375 123 -72.859375 C 128.570312 -79.992188 133.253906 -86.457031 137.046875 -92.25 Z M 137.046875 -92.25 "/></g></g></g><g fill="#3d7c65" fill-opacity="1"><g transform="translate(629.984815, 784.240352)"><g><path d="M 109.96875 -40.78125 C 112.863281 -43.675781 116.597656 -47.910156 121.171875 -53.484375 C 125.742188 -59.054688 130.757812 -65.238281 136.21875 -72.03125 C 141.675781 -78.832031 146.96875 -85.570312 152.09375 -92.25 L 161.453125 -92.25 C 154.765625 -83.113281 147.460938 -73.476562 139.546875 -63.34375 C 131.640625 -53.207031 123.507812 -43.515625 115.15625 -34.265625 C 106.800781 -25.015625 98.832031 -17.269531 91.25 -11.03125 C 83.675781 -4.789062 76.992188 -1.003906 71.203125 0.328125 C 62.953125 1.890625 56.820312 1.28125 52.8125 -1.5 C 48.800781 -4.289062 46.570312 -8.582031 46.125 -14.375 C 45.675781 -20.164062 46.457031 -26.738281 48.46875 -34.09375 C 39.78125 -24.507812 30.421875 -16.375 20.390625 -9.6875 C 10.359375 -3.007812 0.664062 0.328125 -8.6875 0.328125 C -17.382812 0.328125 -23.847656 -1.84375 -28.078125 -6.1875 C -32.304688 -10.53125 -34.753906 -16.097656 -35.421875 -22.890625 C -36.097656 -29.691406 -35.265625 -37.101562 -32.921875 -45.125 C -30.585938 -53.144531 -26.96875 -60.832031 -22.0625 -68.1875 C -12.925781 -82.226562 -2.507812 -93.925781 9.1875 -103.28125 C 20.882812 -112.644531 32.414062 -119.664062 43.78125 -124.34375 C 55.15625 -129.019531 64.851562 -131.359375 72.875 -131.359375 C 81.5625 -131.359375 86.90625 -128.851562 88.90625 -123.84375 C 90.914062 -118.832031 90.921875 -112.425781 88.921875 -104.625 C 95.828125 -115.09375 103.289062 -126.234375 111.3125 -138.046875 C 119.332031 -149.859375 127.242188 -161.445312 135.046875 -172.8125 C 142.847656 -184.175781 149.976562 -194.484375 156.4375 -203.734375 C 162.894531 -212.984375 168.019531 -220.390625 171.8125 -225.953125 C 175.601562 -231.523438 177.5 -234.3125 177.5 -234.3125 C 177.5 -234.3125 180.503906 -233.976562 186.515625 -233.3125 C 192.535156 -232.644531 201.117188 -232.976562 212.265625 -234.3125 C 211.816406 -233.425781 209.25 -229.914062 204.5625 -223.78125 C 199.882812 -217.65625 193.8125 -209.632812 186.34375 -199.71875 C 178.882812 -189.800781 170.640625 -178.769531 161.609375 -166.625 C 152.585938 -154.476562 143.453125 -141.941406 134.203125 -129.015625 C 124.953125 -116.097656 116.257812 -103.507812 108.125 -91.25 C 100 -79 92.984375 -67.800781 87.078125 -57.65625 C 81.171875 -47.519531 77.101562 -39.332031 74.875 -33.09375 C 71.757812 -24.175781 70.585938 -18.378906 71.359375 -15.703125 C 72.140625 -13.035156 74.144531 -12.367188 77.375 -13.703125 C 80.613281 -15.035156 84.40625 -17.484375 88.75 -21.046875 C 93.09375 -24.617188 97.210938 -28.296875 101.109375 -32.078125 C 105.015625 -35.867188 107.96875 -38.769531 109.96875 -40.78125 Z M 4.6875 -16.71875 C 9.8125 -16.71875 15.546875 -18.773438 21.890625 -22.890625 C 28.242188 -27.015625 34.648438 -32.195312 41.109375 -38.4375 C 47.578125 -44.675781 53.375 -51.140625 58.5 -57.828125 L 62.84375 -65.515625 L 71.859375 -79.5625 C 75.878906 -87.132812 79 -93.984375 81.21875 -100.109375 C 83.445312 -106.242188 84.113281 -111.203125 83.21875 -114.984375 C 82.332031 -118.773438 78.882812 -120.671875 72.875 -120.671875 C 68.632812 -120.671875 62.894531 -119.332031 55.65625 -116.65625 C 48.414062 -113.976562 40.671875 -109.410156 32.421875 -102.953125 C 24.179688 -96.492188 16.382812 -87.582031 9.03125 -76.21875 C 5.457031 -70.863281 2.171875 -64.785156 -0.828125 -57.984375 C -3.835938 -51.191406 -6.007812 -44.675781 -7.34375 -38.4375 C -8.6875 -32.195312 -8.519531 -27.015625 -6.84375 -22.890625 C -5.175781 -18.773438 -1.332031 -16.71875 4.6875 -16.71875 Z M 4.6875 -16.71875 "/></g></g></g></svg>